<?xml version="1.0" encoding="UTF-8" standalone="no"?>
<svg xmlns:xlink="http://www.w3.org/1999/xlink" height="112.9px" width="103.0px" xmlns="http://www.w3.org/2000/svg">
  <g transform="matrix(1.0, 0.0, 0.0, 1.0, -180.75, -81.45)">
    <path d="M283.55 140.05 Q284.0 143.55 282.55 147.05 L279.75 148.65 Q282.65 146.7 269.85 152.7 257.05 158.6 228.05 174.9 226.8 178.8 226.25 182.7 L227.8 185.7 Q258.25 173.55 283.55 157.55 284.0 161.05 282.55 164.55 253.25 181.3 222.3 194.25 211.7 181.35 202.85 167.6 199.8 149.3 202.9 141.45 207.4 148.55 212.35 155.65 217.45 163.1 223.05 170.55 L245.85 159.05 268.7 147.55 283.55 140.05 M193.95 153.1 Q188.1 143.1 183.05 133.05 179.65 123.85 181.5 115.5 182.55 110.85 184.05 108.55 188.55 117.4 193.65 126.25 188.8 143.55 193.95 153.1" fill="#976831" fill-rule="evenodd" stroke="none"/>
    <path d="M222.15 88.8 Q231.3 84.85 240.55 81.55 247.1 88.55 253.1 95.65 L222.15 88.8 M272.15 121.15 Q278.35 130.5 283.55 140.05 L268.7 147.55 272.15 121.15 M279.75 152.3 L283.55 157.55 Q258.25 173.55 227.8 185.7 L226.25 182.7 Q253.7 171.9 279.75 156.3 L279.75 152.3 M202.85 167.6 Q198.45 160.75 194.4 153.9 L194.15 153.4 193.95 153.1 Q188.8 143.55 193.65 126.25 188.55 117.4 184.05 108.55 195.2 101.8 206.5 96.15 L193.65 126.25 Q198.05 133.85 202.9 141.45 199.8 149.3 202.85 167.6 M245.85 159.05 L223.05 170.55 Q217.45 163.1 212.35 155.65 L245.85 159.05" fill="#61431f" fill-rule="evenodd" stroke="none"/>
    <path d="M253.1 95.65 Q263.6 108.2 272.15 121.15 L268.7 147.55 245.85 159.05 212.35 155.65 Q207.4 148.55 202.9 141.45 198.05 133.85 193.65 126.25 L206.5 96.15 Q214.3 92.2 222.15 88.8 L253.1 95.65" fill="#bb7c3e" fill-rule="evenodd" stroke="none"/>
    <path d="M279.75 148.65 L279.75 152.3 279.75 156.3 Q253.7 171.9 226.25 182.7 226.8 178.8 228.05 174.9 257.05 158.6 269.85 152.7 282.65 146.7 279.75 148.65" fill="#f1eac2" fill-rule="evenodd" stroke="none"/>
    <path d="M240.55 81.55 Q247.1 88.55 253.1 95.65 263.6 108.2 272.15 121.15 278.35 130.5 283.55 140.05 284.0 143.55 282.55 147.05 L279.75 148.65 279.75 152.3 283.55 157.55 Q284.0 161.05 282.55 164.55 253.25 181.3 222.3 194.25 211.7 181.35 202.85 167.6 198.45 160.75 194.4 153.9 188.3 143.5 183.05 133.05 179.65 123.85 181.5 115.5 182.55 110.85 184.05 108.55 202.9 97.15 222.15 88.8 231.3 84.85 240.55 81.55 Z" fill="none" stroke="#61431f" stroke-linecap="round" stroke-linejoin="round" stroke-width="0.25"/>
  </g>
</svg>
